<svg width="18" height="18" viewBox="0 0 18 18" fill="none" xmlns="http://www.w3.org/2000/svg">
<path d="M1.5 2.88281C1.5 2.53213 1.78103 2.25 2.13035 2.25H3.32537C3.90319 2.25 4.41535 2.5875 4.65435 3.09375H15.449C16.1398 3.09375 16.644 3.75293 16.4628 4.42266L15.386 8.43838C15.1627 9.26631 14.4142 9.84375 13.5606 9.84375H5.98333L6.12516 10.5952C6.18294 10.8932 6.44296 11.1094 6.745 11.1094H14.317C14.6663 11.1094 14.9474 11.3915 14.9474 11.7422C14.9474 12.0929 14.6663 12.375 14.317 12.375H6.745C5.83625 12.375 5.0562 11.7264 4.88811 10.8325L3.53286 3.68701C3.51448 3.58682 3.42781 3.51563 3.32537 3.51563H2.13035C1.78103 3.51563 1.5 3.2335 1.5 2.88281ZM4.86184 14.4844C4.86184 14.3182 4.89445 14.1536 4.95781 14C5.02116 13.8465 5.11402 13.707 5.23109 13.5894C5.34816 13.4719 5.48713 13.3787 5.64009 13.3151C5.79304 13.2515 5.95698 13.2188 6.12253 13.2188C6.28809 13.2188 6.45202 13.2515 6.60498 13.3151C6.75793 13.3787 6.89691 13.4719 7.01398 13.5894C7.13104 13.707 7.2239 13.8465 7.28726 14C7.35061 14.1536 7.38322 14.3182 7.38322 14.4844C7.38322 14.6506 7.35061 14.8152 7.28726 14.9687C7.2239 15.1223 7.13104 15.2618 7.01398 15.3793C6.89691 15.4968 6.75793 15.5901 6.60498 15.6537C6.45202 15.7173 6.28809 15.75 6.12253 15.75C5.95698 15.75 5.79304 15.7173 5.64009 15.6537C5.48713 15.5901 5.34816 15.4968 5.23109 15.3793C5.11402 15.2618 5.02116 15.1223 4.95781 14.9687C4.89445 14.8152 4.86184 14.6506 4.86184 14.4844ZM13.6867 13.2188C14.021 13.2188 14.3417 13.3521 14.5781 13.5894C14.8145 13.8268 14.9474 14.1487 14.9474 14.4844C14.9474 14.82 14.8145 15.142 14.5781 15.3793C14.3417 15.6167 14.021 15.75 13.6867 15.75C13.3523 15.75 13.0317 15.6167 12.7952 15.3793C12.5588 15.142 12.426 14.82 12.426 14.4844C12.426 14.1487 12.5588 13.8268 12.7952 13.5894C13.0317 13.3521 13.3523 13.2188 13.6867 13.2188Z" fill="#454749"/>
</svg>
