<svg width="14" height="14" viewBox="0 0 14 14" fill="none" xmlns="http://www.w3.org/2000/svg">
<path d="M6.99984 0.729206C3.54067 0.729206 0.729004 3.54087 0.729004 7.00004C0.729004 10.4592 3.54067 13.2709 6.99984 13.2709C10.459 13.2709 13.2707 10.4592 13.2707 7.00004C13.2707 3.54087 10.459 0.729206 6.99984 0.729206ZM6.99984 12.3959C4.02484 12.3959 1.604 9.97504 1.604 7.00004C1.604 4.02504 4.02484 1.60421 6.99984 1.60421C9.97484 1.60421 12.3957 4.02504 12.3957 7.00004C12.3957 9.97504 9.97484 12.3959 6.99984 12.3959Z" fill="#454749"/>
<path d="M7 5.97921C6.76083 5.97921 6.5625 6.17754 6.5625 6.41671V9.33337C6.5625 9.57254 6.76083 9.77087 7 9.77087C7.23917 9.77087 7.4375 9.57254 7.4375 9.33337V6.41671C7.4375 6.17754 7.23917 5.97921 7 5.97921Z" fill="#454749"/>
<path d="M6.99984 4.08393C6.924 4.08393 6.84817 4.10143 6.77817 4.1306C6.70817 4.15976 6.644 4.2006 6.58567 4.2531C6.53317 4.31143 6.49234 4.36976 6.46317 4.4456C6.434 4.5156 6.4165 4.59143 6.4165 4.66726C6.4165 4.7431 6.434 4.81893 6.46317 4.88893C6.49234 4.95893 6.53317 5.0231 6.58567 5.08143C6.644 5.13393 6.70817 5.17476 6.77817 5.20393C6.91817 5.26226 7.0815 5.26226 7.2215 5.20393C7.2915 5.17476 7.35567 5.13393 7.414 5.08143C7.4665 5.0231 7.50734 4.95893 7.5365 4.88893C7.56567 4.81893 7.58317 4.7431 7.58317 4.66726C7.58317 4.59143 7.56567 4.5156 7.5365 4.4456C7.50734 4.36976 7.4665 4.31143 7.414 4.2531C7.35567 4.2006 7.2915 4.15976 7.2215 4.1306C7.1515 4.10143 7.07567 4.08393 6.99984 4.08393Z" fill="#454749"/>
</svg>
