<svg width="18" height="18" viewBox="0 0 18 18" fill="none" xmlns="http://www.w3.org/2000/svg">
<path d="M10.897 7.10244L7.10195 10.8974C6.61445 10.4099 6.31445 9.74244 6.31445 8.99994C6.31445 7.51494 7.51445 6.31494 8.99945 6.31494C9.74195 6.31494 10.4095 6.61494 10.897 7.10244Z" stroke="#959A9D" stroke-width="1.5" stroke-linecap="round" stroke-linejoin="round"/>
<path d="M13.3649 4.32736C12.0524 3.33736 10.5524 2.79736 8.99988 2.79736C6.35238 2.79736 3.88488 4.35736 2.16738 7.05736C1.49238 8.11486 1.49238 9.89236 2.16738 10.9499C2.75988 11.8799 3.44988 12.6824 4.19988 13.3274" stroke="#959A9D" stroke-width="1.5" stroke-linecap="round" stroke-linejoin="round"/>
<path d="M6.31445 14.6478C7.16945 15.0078 8.07695 15.2028 8.99945 15.2028C11.647 15.2028 14.1145 13.6428 15.832 10.9428C16.507 9.88525 16.507 8.10775 15.832 7.05025C15.5845 6.66025 15.3145 6.29275 15.037 5.94775" stroke="#959A9D" stroke-width="1.5" stroke-linecap="round" stroke-linejoin="round"/>
<path d="M11.6326 9.52539C11.4376 10.5829 10.5751 11.4454 9.51758 11.6404" stroke="#959A9D" stroke-width="1.5" stroke-linecap="round" stroke-linejoin="round"/>
<path d="M7.1025 10.8975L1.5 16.5" stroke="#959A9D" stroke-width="1.5" stroke-linecap="round" stroke-linejoin="round"/>
<path d="M16.5 1.5L10.8975 7.1025" stroke="#959A9D" stroke-width="1.5" stroke-linecap="round" stroke-linejoin="round"/>
</svg>
