<svg width="28" height="28" viewBox="0 0 28 28" fill="none" xmlns="http://www.w3.org/2000/svg">
<path d="M14.0003 0.666626C6.65366 0.666626 0.666992 6.65329 0.666992 14C0.666992 21.3466 6.65366 27.3333 14.0003 27.3333C21.347 27.3333 27.3337 21.3466 27.3337 14C27.3337 6.65329 21.347 0.666626 14.0003 0.666626ZM19.3337 15H15.0003V19.3333C15.0003 19.88 14.547 20.3333 14.0003 20.3333C13.4537 20.3333 13.0003 19.88 13.0003 19.3333V15H8.66699C8.12033 15 7.66699 14.5466 7.66699 14C7.66699 13.4533 8.12033 13 8.66699 13H13.0003V8.66663C13.0003 8.11996 13.4537 7.66663 14.0003 7.66663C14.547 7.66663 15.0003 8.11996 15.0003 8.66663V13H19.3337C19.8803 13 20.3337 13.4533 20.3337 14C20.3337 14.5466 19.8803 15 19.3337 15Z" fill="#428BCA"/>
</svg>
