<svg width="14" height="14" viewBox="0 0 14 14" fill="none" xmlns="http://www.w3.org/2000/svg">
<path fill-rule="evenodd" clip-rule="evenodd" d="M13.72 7.15911C13.72 6.66275 13.6755 6.18548 13.5927 5.72729H7V8.43503H10.7673C10.605 9.31003 10.1118 10.0514 9.37046 10.5478V12.3041H11.6327C12.9564 11.0855 13.72 9.29094 13.72 7.15911Z" fill="#4267CF"/>
<path fill-rule="evenodd" clip-rule="evenodd" d="M7.00009 14.0001C8.8901 14.0001 10.4746 13.3733 11.6328 12.3042L9.37055 10.5478C8.74373 10.9678 7.94191 11.216 7.00009 11.216C5.17691 11.216 3.63372 9.98463 3.08327 8.33008H0.744629V10.1437C1.89645 12.4314 4.26373 14.0001 7.00009 14.0001Z" fill="#34A853"/>
<path fill-rule="evenodd" clip-rule="evenodd" d="M3.08319 8.33009C2.94319 7.91009 2.86364 7.46145 2.86364 7.00009C2.86364 6.53872 2.94319 6.09009 3.08319 5.67008V3.85645H0.744547C0.270455 4.80145 0 5.87054 0 7.00009C0 8.12963 0.270455 9.19873 0.744547 10.1437L3.08319 8.33009Z" fill="#FBBC05"/>
<path fill-rule="evenodd" clip-rule="evenodd" d="M7.00009 2.7841C8.02782 2.7841 8.95055 3.13728 9.67601 3.83092L11.6837 1.82318C10.4715 0.693637 8.88691 0 7.00009 0C4.26373 0 1.89645 1.56864 0.744629 3.85637L3.08327 5.67001C3.63372 4.01546 5.17691 2.7841 7.00009 2.7841Z" fill="#EA4335"/>
</svg>
