<svg width="18" height="18" viewBox="0 0 18 18" fill="none" xmlns="http://www.w3.org/2000/svg">
<path d="M2.89453 10.1558L8.18848 15.1096C8.4082 15.3151 8.69824 15.4297 9 15.4297C9.30176 15.4297 9.5918 15.3151 9.81152 15.1096L15.1055 10.1558C15.9961 9.32481 16.5 8.15905 16.5 6.94043V6.77011C16.5 4.71755 15.0205 2.96743 13.002 2.62974C11.666 2.40658 10.3066 2.8441 9.35156 3.80138L9 4.15375L8.64844 3.80138C7.69336 2.8441 6.33398 2.40658 4.99805 2.62974C2.97949 2.96743 1.5 4.71755 1.5 6.77011V6.94043C1.5 8.15905 2.00391 9.32481 2.89453 10.1558Z" fill="#454749"/>
</svg>
