<svg width="20" height="20" viewBox="0 0 20 20" fill="none" xmlns="http://www.w3.org/2000/svg">
<path fill-rule="evenodd" clip-rule="evenodd" d="M12.7779 5.84265C11.9556 5.29325 10.9889 5 10 5V0C11.9778 0 13.9112 0.58649 15.5557 1.68531C17.2002 2.78412 18.4819 4.34591 19.2388 6.17315C19.9957 8.0004 20.1937 10.0111 19.8079 11.9509C19.422 13.8907 18.4696 15.6726 17.0711 17.0711C15.6726 18.4696 13.8907 19.422 11.9509 19.8079C10.0111 20.1937 8.0004 19.9957 6.17315 19.2388C4.3459 18.4819 2.78412 17.2002 1.68531 15.5557C0.58649 13.9112 0 11.9778 0 10H5C5 10.9889 5.29325 11.9556 5.84265 12.7779C6.39205 13.6001 7.17295 14.241 8.0866 14.6194C9.0002 14.9979 10.0056 15.0969 10.9755 14.9039C11.9454 14.711 12.8363 14.2348 13.5356 13.5356C14.2348 12.8363 14.711 11.9454 14.9039 10.9755C15.0969 10.0056 14.9979 9.0002 14.6194 8.0866C14.241 7.17295 13.6001 6.39205 12.7779 5.84265Z" fill="#428BCA"/>
<path fill-rule="evenodd" clip-rule="evenodd" d="M5 2.64247e-06C5 0.656612 4.87067 1.30679 4.6194 1.91342C4.36812 2.52005 3.99983 3.07124 3.53553 3.53554C3.07124 3.99983 2.52005 4.36813 1.91342 4.6194C1.30679 4.87067 0.656607 5 2.18555e-07 5L0 10C1.31322 10 2.61358 9.74135 3.82684 9.2388C5.0401 8.73625 6.1425 7.99965 7.07105 7.07105C7.99965 6.1425 8.73625 5.0401 9.2388 3.82684C9.74135 2.61358 10 1.31322 10 0L5 2.64247e-06Z" fill="#428BCA"/>
</svg>
