<svg width="17" height="17" viewBox="0 0 17 17" fill="none" xmlns="http://www.w3.org/2000/svg">
<path fill-rule="evenodd" clip-rule="evenodd" d="M7.4375 11.2501C7.4375 10.8024 7.25975 10.3732 6.94306 10.0571C6.62694 9.74038 6.19775 9.56264 5.75 9.56264C4.63287 9.56264 2.92962 9.56264 1.8125 9.56264C1.36475 9.56264 0.935561 9.74038 0.619436 10.0571C0.302749 10.3732 0.125 10.8024 0.125 11.2501V15.1876C0.125 15.6354 0.302749 16.0646 0.619436 16.3807C0.935561 16.6974 1.36475 16.8751 1.8125 16.8751H5.75C6.19775 16.8751 6.62694 16.6974 6.94306 16.3807C7.25975 16.0646 7.4375 15.6354 7.4375 15.1876V11.2501ZM15.875 11.2501C15.875 10.8024 15.6972 10.3732 15.3806 10.0571C15.0644 9.74038 14.6352 9.56264 14.1875 9.56264C13.0704 9.56264 11.3671 9.56264 10.25 9.56264C9.80225 9.56264 9.37306 9.74038 9.05694 10.0571C8.74025 10.3732 8.5625 10.8024 8.5625 11.2501V15.1876C8.5625 15.6354 8.74025 16.0646 9.05694 16.3807C9.37306 16.6974 9.80225 16.8751 10.25 16.8751H14.1875C14.6352 16.8751 15.0644 16.6974 15.3806 16.3807C15.6972 16.0646 15.875 15.6354 15.875 15.1876V11.2501ZM6.3125 11.2501V15.1876C6.3125 15.3367 6.25344 15.4801 6.14769 15.5853C6.0425 15.6911 5.89906 15.7501 5.75 15.7501H1.8125C1.66344 15.7501 1.52 15.6911 1.41481 15.5853C1.30906 15.4801 1.25 15.3367 1.25 15.1876V11.2501C1.25 11.1011 1.30906 10.9576 1.41481 10.8524C1.52 10.7467 1.66344 10.6876 1.8125 10.6876H5.75C5.89906 10.6876 6.0425 10.7467 6.14769 10.8524C6.25344 10.9576 6.3125 11.1011 6.3125 11.2501ZM14.75 11.2501V15.1876C14.75 15.3367 14.6909 15.4801 14.5852 15.5853C14.48 15.6911 14.3366 15.7501 14.1875 15.7501H10.25C10.1009 15.7501 9.9575 15.6911 9.85231 15.5853C9.74656 15.4801 9.6875 15.3367 9.6875 15.1876V11.2501C9.6875 11.1011 9.74656 10.9576 9.85231 10.8524C9.9575 10.7467 10.1009 10.6876 10.25 10.6876H14.1875C14.3366 10.6876 14.48 10.7467 14.5852 10.8524C14.6909 10.9576 14.75 11.1011 14.75 11.2501ZM13.4118 8.3212L15.7586 5.97445C16.4172 5.31576 16.4172 4.24701 15.7586 3.58832L13.4118 1.24157C12.7531 0.582887 11.6844 0.582887 11.0257 1.24157L8.67894 3.58832C8.02025 4.24701 8.02025 5.31576 8.67894 5.97445L11.0257 8.3212C11.6844 8.97989 12.7531 8.97989 13.4118 8.3212ZM7.4375 2.81264C7.4375 2.36489 7.25975 1.9357 6.94306 1.61957C6.62694 1.30288 6.19775 1.12514 5.75 1.12514C4.63287 1.12514 2.92962 1.12514 1.8125 1.12514C1.36475 1.12514 0.935561 1.30288 0.619436 1.61957C0.302749 1.9357 0.125 2.36489 0.125 2.81264V6.75014C0.125 7.19789 0.302749 7.62707 0.619436 7.9432C0.935561 8.25989 1.36475 8.43764 1.8125 8.43764H5.75C6.19775 8.43764 6.62694 8.25989 6.94306 7.9432C7.25975 7.62707 7.4375 7.19789 7.4375 6.75014V2.81264ZM14.9632 5.17907L12.6164 7.52582C12.3971 7.7452 12.0404 7.7452 11.8211 7.52582L9.47431 5.17907C9.25494 4.9597 9.25494 4.60307 9.47431 4.3837L11.8211 2.03695C12.0404 1.81757 12.3971 1.81757 12.6164 2.03695L14.9632 4.3837C15.1826 4.60307 15.1826 4.9597 14.9632 5.17907ZM6.3125 2.81264V6.75014C6.3125 6.8992 6.25344 7.04264 6.14769 7.14782C6.0425 7.25357 5.89906 7.31264 5.75 7.31264H1.8125C1.66344 7.31264 1.52 7.25357 1.41481 7.14782C1.30906 7.04264 1.25 6.8992 1.25 6.75014V2.81264C1.25 2.66357 1.30906 2.52014 1.41481 2.41495C1.52 2.3092 1.66344 2.25014 1.8125 2.25014H5.75C5.89906 2.25014 6.0425 2.3092 6.14769 2.41495C6.25344 2.52014 6.3125 2.66357 6.3125 2.81264Z" fill="#74787B"/>
</svg>
