<svg width="16" height="16" viewBox="0 0 16 16" fill="none" xmlns="http://www.w3.org/2000/svg">
<path d="M14.8411 10.9492C14.5807 10.5549 14.1616 10.2961 13.6925 10.2382L11.8047 10.007V8.15016C11.8047 7.36154 11.1629 6.71973 10.3748 6.71973C9.58678 6.71973 8.94496 7.36154 8.94496 8.15016V10.8789L8.42296 10.556C7.80928 10.1752 7.0139 10.3203 6.57178 10.8918C6.16171 11.4234 6.18534 12.1749 6.62915 12.6789L8.97759 15.3457C9.24253 15.646 9.62446 15.8187 10.025 15.8187H12.977C13.5957 15.8187 14.147 15.4036 14.3185 14.809L15.0453 12.284C15.1758 11.8295 15.1015 11.3429 14.8411 10.9492ZM14.0722 12.0033L13.3454 14.5284C13.2982 14.692 13.1468 14.8062 12.977 14.8062H10.025C9.91471 14.8062 9.81009 14.759 9.73696 14.6763L7.38853 12.01C7.26421 11.8694 7.25803 11.659 7.37278 11.5111C7.44984 11.4115 7.56515 11.3581 7.68271 11.3581C7.75303 11.3581 7.82503 11.3772 7.88915 11.4172L9.18346 12.2187C9.33984 12.3155 9.53615 12.3205 9.69646 12.2305C9.85678 12.1411 9.95634 11.9724 9.95634 11.7884V8.15073C9.95634 7.9201 10.1437 7.73279 10.3743 7.73279C10.6049 7.73279 10.7922 7.9201 10.7922 8.15073V10.4553C10.7922 10.7112 10.9829 10.9267 11.2372 10.9582L13.5693 11.2439C13.7459 11.2653 13.8978 11.3592 13.9962 11.5083C14.0947 11.6562 14.1217 11.8323 14.0722 12.0033Z" fill="#74787B"/>
<path d="M6.28156 8.63013C6.28156 8.90969 6.50825 9.13638 6.78781 9.13638C7.06737 9.13638 7.29406 8.90969 7.29406 8.63013V8.36688C8.35268 8.06538 8.50793 7.36225 8.51693 7.02307C8.53493 6.31713 7.99043 5.83282 6.89862 5.58419C6.14093 5.41207 6.07062 5.227 6.07568 5.15557C6.10325 4.74719 6.9245 4.67294 7.30531 4.68363C7.30531 4.96319 7.532 5.18988 7.81156 5.18988C8.09112 5.18988 8.31781 4.96319 8.31781 4.68363C8.31781 4.40407 8.2025 4.13238 8.00112 3.93832C7.80875 3.75269 7.56575 3.64975 7.29406 3.652V3.52432C7.29406 3.24475 7.06737 3.01807 6.78781 3.01807C6.50825 3.01807 6.28156 3.24475 6.28156 3.52432V3.78925C5.30618 4.06657 5.09243 4.68588 5.06543 5.08638C5.01537 5.81763 5.55706 6.31713 6.67418 6.57082C7.48756 6.75588 7.50556 6.97188 7.505 6.99607C7.49375 7.42919 6.497 7.48713 6.27537 7.48713H6.27481C6.26806 7.48094 6.26806 7.47532 6.26806 7.47194C6.26806 7.19238 6.04137 6.96625 5.76181 6.96625C5.48225 6.96625 5.25556 7.19294 5.25556 7.4725C5.25556 7.75488 5.3675 8.01925 5.57112 8.21557C5.76125 8.3995 6.01831 8.50244 6.28212 8.50582V8.63013H6.28156Z" fill="#74787B"/>
<path d="M4.82355 10.5458C3.04999 9.76896 1.90361 8.01453 1.90361 6.07615C1.90361 3.38403 4.09624 1.19365 6.79174 1.19365C9.30724 1.19365 11.3952 3.07803 11.6489 5.57609C11.6771 5.85396 11.9246 6.05478 12.2036 6.0289C12.482 6.00078 12.6845 5.75215 12.6564 5.47428C12.3498 2.45646 9.82868 0.181152 6.79174 0.181152C3.53824 0.181152 0.891113 2.82546 0.891113 6.07615C0.891113 8.41671 2.27486 10.5351 4.41743 11.4728C4.48324 11.502 4.55243 11.5155 4.61993 11.5155C4.81511 11.5155 5.00074 11.4019 5.08399 11.2118C5.19649 10.9564 5.08005 10.6577 4.82355 10.5458Z" fill="#74787B"/>
</svg>
