<svg width="18" height="18" viewBox="0 0 18 18" fill="none" xmlns="http://www.w3.org/2000/svg">
<mask id="path-1-inside-1_8_615" fill="white">
<path d="M6.20361 6.50914C6.24698 6.71178 6.43192 6.85714 6.64607 6.85714H13.0677C13.2819 6.85714 13.4668 6.71178 13.5102 6.50914L14.562 1.5932C14.6036 1.39928 14.5045 1.20275 14.3204 1.11466C14.1367 1.02569 13.9147 1.06843 13.7798 1.21787L11.8924 3.30007L10.2587 0.236363C10.1813 0.0909984 10.0265 0 9.8572 0C9.68792 0 9.5328 0.0912891 9.4557 0.236363L7.82197 3.29978L5.93463 1.21757C5.79939 1.06843 5.5771 1.02598 5.39367 1.11437C5.20994 1.20246 5.11084 1.39899 5.15211 1.59291L6.20361 6.50914ZM7.5792 4.35687C7.6777 4.46531 7.82408 4.52055 7.97408 4.50253C8.12257 4.48508 8.25239 4.39757 8.32076 4.26936L9.8569 1.38881L11.393 4.26936C11.4614 4.39757 11.5912 4.48508 11.7397 4.50253C11.8894 4.52171 12.0361 4.4656 12.1346 4.35687L13.3301 3.03783L12.7 5.98495H7.01414L6.38373 3.03812L7.5792 4.35687Z"/>
</mask>
<path d="M6.20361 6.50914C6.24698 6.71178 6.43192 6.85714 6.64607 6.85714H13.0677C13.2819 6.85714 13.4668 6.71178 13.5102 6.50914L14.562 1.5932C14.6036 1.39928 14.5045 1.20275 14.3204 1.11466C14.1367 1.02569 13.9147 1.06843 13.7798 1.21787L11.8924 3.30007L10.2587 0.236363C10.1813 0.0909984 10.0265 0 9.8572 0C9.68792 0 9.5328 0.0912891 9.4557 0.236363L7.82197 3.29978L5.93463 1.21757C5.79939 1.06843 5.5771 1.02598 5.39367 1.11437C5.20994 1.20246 5.11084 1.39899 5.15211 1.59291L6.20361 6.50914ZM7.5792 4.35687C7.6777 4.46531 7.82408 4.52055 7.97408 4.50253C8.12257 4.48508 8.25239 4.39757 8.32076 4.26936L9.8569 1.38881L11.393 4.26936C11.4614 4.39757 11.5912 4.48508 11.7397 4.50253C11.8894 4.52171 12.0361 4.4656 12.1346 4.35687L13.3301 3.03783L12.7 5.98495H7.01414L6.38373 3.03812L7.5792 4.35687Z" fill="#8A8B8F"/>
<path d="M6.20361 6.50914L2.29207 7.34575L2.2922 7.34635L6.20361 6.50914ZM13.5102 6.50914L17.4216 7.34635L17.4217 7.34603L13.5102 6.50914ZM14.562 1.5932L10.6508 0.75484L10.6505 0.75631L14.562 1.5932ZM14.3204 1.11466L12.5772 4.71483L12.5853 4.71875L12.5934 4.72263L14.3204 1.11466ZM13.7798 1.21787L16.7435 3.90421L16.7485 3.89863L13.7798 1.21787ZM11.8924 3.30007L8.3629 5.1822L11.038 10.1988L14.8561 5.98641L11.8924 3.30007ZM10.2587 0.236363L6.7281 2.11647L6.72917 2.11849L10.2587 0.236363ZM9.4557 0.236363L12.9852 2.11863L12.9878 2.1137L9.4557 0.236363ZM7.82197 3.29978L4.85827 5.98612L8.67625 10.1983L11.3514 5.18205L7.82197 3.29978ZM5.93463 1.21757L8.89834 -1.46877L8.89781 -1.46936L5.93463 1.21757ZM5.39367 1.11437L7.12298 4.72124L7.12993 4.71789L5.39367 1.11437ZM5.15211 1.59291L1.2397 2.42545L1.24057 2.42952L5.15211 1.59291ZM7.5792 4.35687L4.61566 7.04339L4.61822 7.04621L7.5792 4.35687ZM7.97408 4.50253L7.5074 0.529828L7.49684 0.531098L7.97408 4.50253ZM8.32076 4.26936L11.8502 6.15158L11.8503 6.15157L8.32076 4.26936ZM9.8569 1.38881L13.3864 -0.493391L9.8569 -7.11185L6.32741 -0.493391L9.8569 1.38881ZM11.393 4.26936L7.86355 6.15157L7.86355 6.15158L11.393 4.26936ZM11.7397 4.50253L12.2483 0.534986L12.2273 0.532304L12.2064 0.529843L11.7397 4.50253ZM12.1346 4.35687L9.17076 1.67067L9.17003 1.67148L12.1346 4.35687ZM13.3301 3.03783L17.2417 3.87416L20.3501 -10.6641L10.3662 0.351635L13.3301 3.03783ZM12.7 5.98495V9.98495H15.9351L16.6115 6.82128L12.7 5.98495ZM7.01414 5.98495L3.10265 6.82174L3.77936 9.98495H7.01414V5.98495ZM6.38373 3.03812L9.34727 0.3516L-0.637927 -10.6632L2.47223 3.87491L6.38373 3.03812ZM2.2922 7.34635C2.74978 9.48414 4.63947 10.8571 6.64607 10.8571V2.85714C8.22436 2.85714 9.74418 3.93942 10.115 5.67193L2.2922 7.34635ZM6.64607 10.8571H13.0677V2.85714H6.64607V10.8571ZM13.0677 10.8571C15.0743 10.8571 16.964 9.48414 17.4216 7.34635L9.59879 5.67193C9.96962 3.93942 11.4894 2.85714 13.0677 2.85714V10.8571ZM17.4217 7.34603L18.4735 2.43008L10.6505 0.75631L9.59872 5.67225L17.4217 7.34603ZM18.4732 2.43155C18.9176 0.357935 17.8339 -1.63822 16.0474 -2.49331L12.5934 4.72263C11.1751 4.04371 10.2895 2.44063 10.6508 0.75484L18.4732 2.43155ZM16.0636 -2.48552C14.3012 -3.33886 12.1538 -2.94993 10.811 -1.4629L16.7485 3.89863C15.6756 5.08679 13.9721 5.39024 12.5772 4.71483L16.0636 -2.48552ZM10.8161 -1.46848L8.92872 0.613725L14.8561 5.98641L16.7435 3.90421L10.8161 -1.46848ZM15.422 1.41794L13.7882 -1.64577L6.72917 2.11849L8.3629 5.1822L15.422 1.41794ZM13.7893 -1.64375C12.9914 -3.1421 11.4491 -4 9.8572 -4V4C8.60384 4 7.37118 3.3241 6.7281 2.11647L13.7893 -1.64375ZM9.8572 -4C8.26571 -4 6.72139 -3.14193 5.92361 -1.64097L12.9878 2.1137C12.3442 3.32451 11.1101 4 9.8572 4V-4ZM5.92624 -1.6459L4.29251 1.41751L11.3514 5.18205L12.9852 2.11863L5.92624 -1.6459ZM10.7857 0.613433L8.89834 -1.46877L2.97093 3.90392L4.85827 5.98612L10.7857 0.613433ZM8.89781 -1.46936C7.55401 -2.9513 5.41301 -3.33505 3.65742 -2.48916L7.12993 4.71789C5.74119 5.38701 4.04477 5.08816 2.97146 3.90451L8.89781 -1.46936ZM3.66436 -2.4925C1.87891 -1.63647 0.799584 0.357175 1.23971 2.42545L9.06451 0.76036C9.4221 2.44081 8.54097 4.04138 7.12298 4.72123L3.66436 -2.4925ZM1.24057 2.42952L2.29207 7.34575L10.1151 5.67253L9.06364 0.756295L1.24057 2.42952ZM4.61822 7.04621C5.59373 8.12026 7.02434 8.64543 8.45132 8.47395L7.49684 0.531098C8.62382 0.39567 9.76166 0.810368 10.5402 1.66753L4.61822 7.04621ZM8.44076 8.47521C9.85162 8.30947 11.1467 7.47091 11.8502 6.15158L4.79128 2.38715C5.35811 1.32424 6.39352 0.660692 7.5074 0.529843L8.44076 8.47521ZM11.8503 6.15157L13.3864 3.27102L6.32741 -0.493391L4.79127 2.38716L11.8503 6.15157ZM6.32741 3.27102L7.86355 6.15157L14.9225 2.38716L13.3864 -0.493391L6.32741 3.27102ZM7.86355 6.15158C8.56712 7.47089 9.86215 8.30947 11.273 8.47521L12.2064 0.529843C13.3203 0.660695 14.3557 1.32426 14.9225 2.38715L7.86355 6.15158ZM11.2312 8.47007C12.6964 8.65787 14.1344 8.10731 15.0992 7.04226L9.17003 1.67148C9.93779 0.8239 11.0825 0.385555 12.2483 0.534986L11.2312 8.47007ZM15.0984 7.04307L16.2939 5.72403L10.3662 0.351635L9.17076 1.67067L15.0984 7.04307ZM9.41848 2.2015L8.78836 5.14863L16.6115 6.82128L17.2417 3.87416L9.41848 2.2015ZM12.7 1.98496H7.01414V9.98495H12.7V1.98496ZM10.9256 5.14817L10.2952 2.20133L2.47223 3.87491L3.10265 6.82174L10.9256 5.14817ZM3.42018 5.72464L4.61566 7.04339L10.5427 1.67035L9.34727 0.3516L3.42018 5.72464Z" fill="#74787B" mask="url(#path-1-inside-1_8_615)"/>
<mask id="path-3-inside-2_8_615" fill="white">
<path d="M17.8774 10.4802L17.0703 9.83768C16.9414 9.71895 16.3466 9.28179 15 9.77712L12.5647 10.5332C12.4481 9.77474 11.7056 9.45262 11.2972 9.38772C11.2821 9.38533 11.267 9.38403 11.2516 9.38403H8.7478C7.87175 8.69116 6.96155 8.43916 6.04174 8.63625C4.50007 8.96597 3.37065 10.4678 2.89868 11.2047L2.79827 11.0428C2.62773 10.7682 2.3398 10.6041 2.02815 10.6041C1.8482 10.6041 1.67356 10.6597 1.52346 10.7648L0.413474 11.541C0.208776 11.6842 0.0686984 11.9039 0.019211 12.16C-0.0302764 12.4162 0.0165525 12.6766 0.151518 12.8939L3.04878 17.5612C3.21933 17.8358 3.50725 17.9999 3.8189 17.9999C3.99885 17.9999 4.17349 17.9443 4.32359 17.8392L5.43358 17.063C5.63828 16.9198 5.77835 16.7001 5.82784 16.444C5.87733 16.1878 5.8305 15.9274 5.69553 15.7101L5.58961 15.5395L6.58078 14.9189H12.2898C12.3508 14.9189 12.4103 14.8996 12.4608 14.8635L17.8643 11.0107C17.9467 10.9519 17.9972 10.8544 17.9999 10.7489C18.0025 10.6434 17.9569 10.5434 17.8774 10.4802ZM5.22704 16.3129C5.21048 16.3986 5.16385 16.4717 5.09616 16.5193L3.98617 17.2955C3.84957 17.3908 3.65019 17.3459 3.56124 17.2028L0.663978 12.5355C0.619194 12.4635 0.603857 12.3769 0.620421 12.2911C0.636985 12.2054 0.683609 12.1322 0.751297 12.0847L1.86129 11.3085C1.91098 11.2738 1.96864 11.2553 2.02836 11.2553C2.13306 11.2553 2.22937 11.3098 2.28622 11.4012L5.18348 16.0684C5.22806 16.1405 5.2436 16.2273 5.22704 16.3129ZM12.1964 14.2679H6.49715C6.44234 14.2679 6.38856 14.2835 6.34132 14.3131L5.25178 14.9953L3.26718 11.7982C3.55776 11.3063 4.66448 9.59523 6.163 9.27484C6.92985 9.1114 7.70141 9.34365 8.45619 9.96684C8.50997 10.0113 8.57623 10.0354 8.64453 10.0354H11.2254C11.3487 10.0604 11.9677 10.2123 11.9677 10.7409C11.9677 10.7606 11.97 10.783 11.9733 10.8023C11.9774 10.8257 11.9831 10.867 11.9855 10.9191C11.9827 10.9438 11.9833 10.9692 11.9862 10.9948C11.9802 11.2403 11.8839 11.6265 11.3676 11.7719H9.10444C8.93491 11.7719 8.7977 11.9176 8.7977 12.0975C8.7977 12.2775 8.93491 12.4231 9.10444 12.4231H11.4052C11.4291 12.4231 11.4528 12.4201 11.4764 12.4142C12.2338 12.2228 12.5131 11.6799 12.5812 11.2067L15.1865 10.3973C16.2666 10.0005 16.657 10.32 16.6586 10.32C16.6688 10.3308 16.6799 10.3411 16.6915 10.3504L17.1639 10.7263L12.1964 14.2679Z"/>
</mask>
<path d="M17.8774 10.4802L17.0703 9.83768C16.9414 9.71895 16.3466 9.28179 15 9.77712L12.5647 10.5332C12.4481 9.77474 11.7056 9.45262 11.2972 9.38772C11.2821 9.38533 11.267 9.38403 11.2516 9.38403H8.7478C7.87175 8.69116 6.96155 8.43916 6.04174 8.63625C4.50007 8.96597 3.37065 10.4678 2.89868 11.2047L2.79827 11.0428C2.62773 10.7682 2.3398 10.6041 2.02815 10.6041C1.8482 10.6041 1.67356 10.6597 1.52346 10.7648L0.413474 11.541C0.208776 11.6842 0.0686984 11.9039 0.019211 12.16C-0.0302764 12.4162 0.0165525 12.6766 0.151518 12.8939L3.04878 17.5612C3.21933 17.8358 3.50725 17.9999 3.8189 17.9999C3.99885 17.9999 4.17349 17.9443 4.32359 17.8392L5.43358 17.063C5.63828 16.9198 5.77835 16.7001 5.82784 16.444C5.87733 16.1878 5.8305 15.9274 5.69553 15.7101L5.58961 15.5395L6.58078 14.9189H12.2898C12.3508 14.9189 12.4103 14.8996 12.4608 14.8635L17.8643 11.0107C17.9467 10.9519 17.9972 10.8544 17.9999 10.7489C18.0025 10.6434 17.9569 10.5434 17.8774 10.4802ZM5.22704 16.3129C5.21048 16.3986 5.16385 16.4717 5.09616 16.5193L3.98617 17.2955C3.84957 17.3908 3.65019 17.3459 3.56124 17.2028L0.663978 12.5355C0.619194 12.4635 0.603857 12.3769 0.620421 12.2911C0.636985 12.2054 0.683609 12.1322 0.751297 12.0847L1.86129 11.3085C1.91098 11.2738 1.96864 11.2553 2.02836 11.2553C2.13306 11.2553 2.22937 11.3098 2.28622 11.4012L5.18348 16.0684C5.22806 16.1405 5.2436 16.2273 5.22704 16.3129ZM12.1964 14.2679H6.49715C6.44234 14.2679 6.38856 14.2835 6.34132 14.3131L5.25178 14.9953L3.26718 11.7982C3.55776 11.3063 4.66448 9.59523 6.163 9.27484C6.92985 9.1114 7.70141 9.34365 8.45619 9.96684C8.50997 10.0113 8.57623 10.0354 8.64453 10.0354H11.2254C11.3487 10.0604 11.9677 10.2123 11.9677 10.7409C11.9677 10.7606 11.97 10.783 11.9733 10.8023C11.9774 10.8257 11.9831 10.867 11.9855 10.9191C11.9827 10.9438 11.9833 10.9692 11.9862 10.9948C11.9802 11.2403 11.8839 11.6265 11.3676 11.7719H9.10444C8.93491 11.7719 8.7977 11.9176 8.7977 12.0975C8.7977 12.2775 8.93491 12.4231 9.10444 12.4231H11.4052C11.4291 12.4231 11.4528 12.4201 11.4764 12.4142C12.2338 12.2228 12.5131 11.6799 12.5812 11.2067L15.1865 10.3973C16.2666 10.0005 16.657 10.32 16.6586 10.32C16.6688 10.3308 16.6799 10.3411 16.6915 10.3504L17.1639 10.7263L12.1964 14.2679Z" fill="#8A8B8F"/>
<path d="M17.8774 10.4802L15.3862 13.6097L15.39 13.6127L17.8774 10.4802ZM17.0703 9.83768L14.3595 12.779L14.4659 12.8771L14.5791 12.9672L17.0703 9.83768ZM15 9.77712L16.1859 13.5973L16.2843 13.5667L16.3809 13.5312L15 9.77712ZM12.5647 10.5332L8.61109 11.1408L9.31639 15.7299L13.7506 14.3533L12.5647 10.5332ZM11.2972 9.38772L11.925 5.43729L11.9206 5.4366L11.2972 9.38772ZM8.7478 9.38403L6.26648 12.5214L7.35719 13.384H8.7478V9.38403ZM6.04174 8.63625L6.8783 12.5478L6.87982 12.5475L6.04174 8.63625ZM2.89868 11.2047L-0.500838 13.3126L2.84392 18.7069L6.26706 13.3621L2.89868 11.2047ZM2.79827 11.0428L6.19779 8.9349L6.19619 8.93232L2.79827 11.0428ZM1.52346 10.7648L3.81577 14.0428L3.81716 14.0418L1.52346 10.7648ZM0.413474 11.541L-1.87883 8.26296L-1.88008 8.26383L0.413474 11.541ZM0.151518 12.8939L3.54997 10.7843L3.54936 10.7833L0.151518 12.8939ZM3.04878 17.5612L-0.349673 19.6708L-0.349137 19.6717L3.04878 17.5612ZM4.32359 17.8392L2.03128 14.5612L2.0299 14.5622L4.32359 17.8392ZM5.43358 17.063L7.72588 20.341L7.72713 20.3402L5.43358 17.063ZM5.69553 15.7101L2.29726 17.82L2.29769 17.8207L5.69553 15.7101ZM5.58961 15.5395L3.46692 12.1492L0.089341 14.2639L2.19133 17.6494L5.58961 15.5395ZM6.58078 14.9189V10.9189H5.43188L4.4581 11.5286L6.58078 14.9189ZM12.4608 14.8635L10.1385 11.6067L10.1378 11.6072L12.4608 14.8635ZM17.8643 11.0107L20.1865 14.2676L20.1882 14.2664L17.8643 11.0107ZM5.22704 16.3129L1.30002 15.5523L1.29966 15.5541L5.22704 16.3129ZM5.09616 16.5193L7.38847 19.7973L7.39506 19.7927L5.09616 16.5193ZM3.98617 17.2955L6.27469 20.5762L6.27848 20.5735L3.98617 17.2955ZM3.56124 17.2028L0.162786 19.3124L0.164474 19.3152L3.56124 17.2028ZM0.663978 12.5355L4.06243 10.4259L4.06139 10.4242L0.663978 12.5355ZM0.751297 12.0847L-1.54101 8.8067L-1.5476 8.81132L0.751297 12.0847ZM1.86129 11.3085L-0.430154 8.02988L-0.431021 8.03049L1.86129 11.3085ZM2.28622 11.4012L5.68467 9.29155L5.68264 9.28828L2.28622 11.4012ZM5.18348 16.0684L8.58522 13.9641L8.58193 13.9588L5.18348 16.0684ZM12.1964 14.2679V18.2679H13.4763L14.5184 17.5249L12.1964 14.2679ZM6.34132 14.3131L4.2215 10.921L4.2185 10.9228L6.34132 14.3131ZM5.25178 14.9953L1.85332 17.1049L3.97115 20.5166L7.3746 18.3855L5.25178 14.9953ZM3.26718 11.7982L-0.176716 9.76359L-1.40901 11.8494L-0.13129 13.9078L3.26718 11.7982ZM6.163 9.27484L5.32917 5.36272L5.32671 5.36325L6.163 9.27484ZM8.45619 9.96684L11.0061 6.88494L11.0029 6.88232L8.45619 9.96684ZM11.2254 10.0354L12.0191 6.11495L11.6262 6.03543H11.2254V10.0354ZM11.9733 10.8023L8.02944 11.4703L8.03109 11.48L8.03279 11.4898L11.9733 10.8023ZM11.9855 10.9191L15.959 11.3788L15.9964 11.0557L15.9811 10.7309L11.9855 10.9191ZM11.9862 10.9948L15.985 11.0914L15.9915 10.8202L15.9614 10.5505L11.9862 10.9948ZM11.3676 11.7719V15.7719H11.9201L12.452 15.6221L11.3676 11.7719ZM11.4764 12.4142L12.4436 16.2955L12.4566 16.2923L11.4764 12.4142ZM12.5812 11.2067L11.3944 7.38681L8.98186 8.13637L8.62201 10.6369L12.5812 11.2067ZM15.1865 10.3973L16.3733 14.2172L16.4703 14.187L16.5658 14.1519L15.1865 10.3973ZM16.6586 10.32L19.5701 7.57712L18.3857 6.32H16.6586V10.32ZM16.6915 10.3504L14.1913 13.4727L14.2007 13.4802L16.6915 10.3504ZM17.1639 10.7263L19.486 13.9833L23.808 10.902L19.6548 7.59656L17.1639 10.7263ZM20.3686 7.35066L19.5615 6.70816L14.5791 12.9672L15.3862 13.6097L20.3686 7.35066ZM19.7811 6.89633C19.247 6.40417 18.4017 5.86466 17.2261 5.64511C16.0591 5.42718 14.8376 5.5748 13.6191 6.02305L16.3809 13.5312C16.5089 13.4841 16.2581 13.6026 15.7575 13.5092C15.2481 13.414 14.7646 13.1525 14.3595 12.779L19.7811 6.89633ZM13.814 5.95697L11.3787 6.713L13.7506 14.3533L16.1859 13.5973L13.814 5.95697ZM16.5182 9.92552C16.2617 8.25659 15.2933 7.12271 14.3991 6.46983C13.5671 5.86237 12.665 5.55489 11.925 5.43729L10.6694 13.3381C10.3378 13.2854 10.0111 13.1715 9.68163 12.9309C9.28994 12.6449 8.75102 12.0513 8.61109 11.1408L16.5182 9.92552ZM11.9206 5.4366C11.7196 5.40488 11.4953 5.38403 11.2516 5.38403V13.384C11.0386 13.384 10.8445 13.3658 10.6738 13.3388L11.9206 5.4366ZM11.2516 5.38403H8.7478V13.384H11.2516V5.38403ZM11.2291 6.24666C9.61359 4.96895 7.51434 4.22991 5.20367 4.72503L6.87982 12.5475C6.80405 12.5637 6.7125 12.5737 6.61148 12.5708C6.51049 12.5678 6.4198 12.5524 6.34529 12.5318C6.19513 12.4903 6.17028 12.4453 6.26648 12.5214L11.2291 6.24666ZM5.20518 4.72471C3.43913 5.10241 2.13235 6.08822 1.30998 6.87169C0.462871 7.67872 -0.134126 8.52347 -0.469704 9.04743L6.26706 13.3621C6.40346 13.1491 6.60715 12.8744 6.82816 12.6639C6.93214 12.5648 7.00215 12.5165 7.02953 12.5001C7.05474 12.4849 7.00304 12.5211 6.8783 12.5478L5.20518 4.72471ZM6.2982 9.09683L6.19779 8.9349L-0.601244 13.1507L-0.500838 13.3126L6.2982 9.09683ZM6.19619 8.93232C5.3295 7.53694 3.78552 6.60413 2.02815 6.60413V14.6041C0.894084 14.6041 -0.0740455 13.9995 -0.599641 13.1533L6.19619 8.93232ZM2.02815 6.60413C1.01214 6.60413 0.0394184 6.92102 -0.77023 7.48772L3.81716 14.0418C3.3077 14.3984 2.68425 14.6041 2.02815 14.6041V6.60413ZM-0.76884 7.48675L-1.87883 8.26296L2.70578 14.819L3.81577 14.0428L-0.76884 7.48675ZM-1.88008 8.26383C-2.97424 9.0296 -3.67077 10.1726 -3.90816 11.4012L3.94658 12.9188C3.80816 13.6352 3.39179 14.3389 2.70703 14.8181L-1.88008 8.26383ZM-3.90816 11.4012C-4.14409 12.6224 -3.92557 13.911 -3.24632 15.0045L3.54936 10.7833C3.95868 11.4423 4.08354 12.21 3.94658 12.9188L-3.90816 11.4012ZM-3.24693 15.0035L-0.349673 19.6708L6.44723 15.4515L3.54997 10.7843L-3.24693 15.0035ZM-0.349137 19.6717C0.517544 21.067 2.06152 21.9999 3.8189 21.9999V13.9999C4.95298 13.9999 5.92111 14.6045 6.44669 15.4507L-0.349137 19.6717ZM3.8189 21.9999C4.8349 21.9999 5.80763 21.683 6.61728 21.1163L2.0299 14.5622C2.53935 14.2056 3.1628 13.9999 3.8189 13.9999V21.9999ZM6.6159 21.1172L7.72588 20.341L3.14127 13.785L2.03128 14.5612L6.6159 21.1172ZM7.72713 20.3402C8.82128 19.5744 9.51782 18.4314 9.75521 17.2028L1.90047 15.6852C2.03889 14.9687 2.45527 14.2651 3.14002 13.7859L7.72713 20.3402ZM9.75521 17.2028C9.99114 15.9816 9.77263 14.693 9.09337 13.5995L2.29769 17.8207C1.88837 17.1617 1.76351 16.394 1.90047 15.6852L9.75521 17.2028ZM9.09381 13.6002L8.98788 13.4296L2.19133 17.6494L2.29726 17.82L9.09381 13.6002ZM7.71229 18.9298L8.70347 18.3092L4.4581 11.5286L3.46692 12.1492L7.71229 18.9298ZM6.58078 18.9189H12.2898V10.9189H6.58078V18.9189ZM12.2898 18.9189C13.2032 18.9189 14.0713 18.6281 14.7838 18.1199L10.1378 11.6072C10.7492 11.171 11.4984 10.9189 12.2898 10.9189V18.9189ZM14.783 18.1204L20.1865 14.2676L15.5421 7.75381L10.1385 11.6067L14.783 18.1204ZM20.1882 14.2664C21.3419 13.4429 21.9658 12.1509 21.9986 10.8497L14.0012 10.6481C14.0286 9.55793 14.5515 8.46085 15.5404 7.75498L20.1882 14.2664ZM21.9986 10.8497C22.0315 9.54659 21.472 8.2268 20.3648 7.34764L15.39 13.6127C14.4419 12.8599 13.9736 11.7403 14.0012 10.6481L21.9986 10.8497ZM1.29966 15.5541C1.46973 14.6738 1.97494 13.8234 2.79727 13.2459L7.39506 19.7927C8.35276 19.1201 8.95122 18.1234 9.15442 17.0716L1.29966 15.5541ZM2.80386 13.2413L1.69387 14.0175L6.27848 20.5735L7.38847 19.7973L2.80386 13.2413ZM1.69766 14.0148C3.53105 12.7359 5.89543 13.3818 6.958 15.0905L0.164474 19.3152C1.40495 21.3099 4.1681 22.0457 6.27469 20.5762L1.69766 14.0148ZM6.95969 15.0932L4.06243 10.4259L-2.73447 14.6452L0.162787 19.3124L6.95969 15.0932ZM4.06139 10.4242C4.56799 11.2394 4.71521 12.1833 4.5478 13.0499L-3.30696 11.5324C-3.5075 12.5704 -3.3296 13.6875 -2.73343 14.6468L4.06139 10.4242ZM4.5478 13.0499C4.37772 13.9303 3.87248 14.7806 3.05019 15.3581L-1.5476 8.81132C-2.50527 9.48389 -3.10375 10.4805 -3.30696 11.5324L4.5478 13.0499ZM3.0436 15.3627L4.15359 14.5865L-0.431021 8.03049L-1.54101 8.8067L3.0436 15.3627ZM4.15273 14.5871C3.5469 15.0105 2.80804 15.2553 2.02836 15.2553V7.25532C1.12925 7.25532 0.275056 7.53701 -0.430154 8.02988L4.15273 14.5871ZM2.02836 15.2553C0.70461 15.2553 -0.461768 14.5564 -1.11019 13.5141L5.68264 9.28828C4.92051 8.06319 3.5615 7.25532 2.02836 7.25532V15.2553ZM-1.11223 13.5108L1.78503 18.1781L8.58193 13.9588L5.68467 9.29155L-1.11223 13.5108ZM1.78175 18.1728C1.28311 17.3667 1.13064 16.4268 1.30002 15.5523L9.15406 17.0734C9.35657 16.0279 9.17302 14.9143 8.58522 13.9641L1.78175 18.1728ZM12.1964 10.2679H6.49715V18.2679H12.1964V10.2679ZM6.49715 10.2679C5.67646 10.2679 4.89048 10.5029 4.2215 10.921L8.46115 17.7052C7.88664 18.0642 7.20823 18.2679 6.49715 18.2679V10.2679ZM4.2185 10.9228L3.12896 11.6051L7.3746 18.3855L8.46414 17.7033L4.2185 10.9228ZM8.65025 12.8857L6.66564 9.68858L-0.13129 13.9078L1.85332 17.1049L8.65025 12.8857ZM6.71107 13.8328C6.7364 13.7899 6.79644 13.6921 6.88337 13.5707C6.97204 13.4469 7.0705 13.3241 7.16902 13.2199C7.21681 13.1694 7.25787 13.1303 7.29066 13.1018C7.30669 13.0879 7.31933 13.0776 7.32838 13.0707C7.33745 13.0637 7.34186 13.0607 7.3414 13.061C7.34096 13.0613 7.33448 13.0657 7.3218 13.0728C7.30912 13.0799 7.28911 13.0904 7.26173 13.1028C7.20721 13.1273 7.11893 13.1609 6.9993 13.1864L5.32671 5.36325C3.41748 5.77144 2.08056 6.95712 1.35521 7.7245C0.571229 8.5539 0.048346 9.38263 -0.176716 9.76359L6.71107 13.8328ZM6.99684 13.187C6.70526 13.2491 6.40592 13.2299 6.1592 13.1555C5.93568 13.0881 5.85502 13.0064 5.90948 13.0514L11.0029 6.88232C9.56091 5.69174 7.57919 4.88315 5.32917 5.36272L6.99684 13.187ZM5.90631 13.0487C6.66181 13.6738 7.6254 14.0354 8.64453 14.0354V6.03543C9.52706 6.03543 10.3581 6.34885 11.0061 6.88494L5.90631 13.0487ZM8.64453 14.0354H11.2254V6.03543H8.64453V14.0354ZM10.4318 13.9559C10.3108 13.9314 9.94403 13.8566 9.5111 13.5839C9.26924 13.4316 8.88572 13.1417 8.55214 12.6467C8.18935 12.1085 7.96775 11.4446 7.96775 10.7409H15.9677C15.9677 8.60622 14.6143 7.34359 13.7746 6.81468C13.0013 6.32766 12.2633 6.1644 12.0191 6.11495L10.4318 13.9559ZM7.96775 10.7409C7.96775 11.0281 7.99686 11.2779 8.02944 11.4703L15.9171 10.1344C15.9321 10.2229 15.9438 10.312 15.9522 10.4023C15.9604 10.4905 15.9677 10.6053 15.9677 10.7409H7.96775ZM8.03279 11.4898C8.01137 11.367 7.99625 11.2407 7.98997 11.1073L15.9811 10.7309C15.9699 10.4933 15.9434 10.2845 15.9138 10.1148L8.03279 11.4898ZM8.01204 10.4594C7.9663 10.8548 7.98336 11.1927 8.01091 11.4392L15.9614 10.5505C15.9832 10.7457 15.9991 11.0329 15.959 11.3788L8.01204 10.4594ZM7.98732 10.8982C7.99465 10.5949 8.05635 9.98396 8.46041 9.3265C8.92702 8.56727 9.62961 8.10579 10.2831 7.92173L12.452 15.6221C13.6219 15.2926 14.6308 14.5654 15.2761 13.5153C15.8589 12.567 15.9717 11.6403 15.985 11.0914L7.98732 10.8982ZM11.3676 7.77192H9.10444V15.7719H11.3676V7.77192ZM9.10444 7.77192C6.50435 7.77192 4.7977 9.93655 4.7977 12.0975H12.7977C12.7977 13.8986 11.3655 15.7719 9.10444 15.7719V7.77192ZM4.7977 12.0975C4.7977 14.2585 6.50436 16.4231 9.10444 16.4231V8.42311C11.3655 8.42311 12.7977 10.2964 12.7977 12.0975H4.7977ZM9.10444 16.4231H11.4052V8.42311H9.10444V16.4231ZM11.4052 16.4231C11.7713 16.4231 12.1198 16.3762 12.4436 16.2955L10.5091 8.53292C10.7859 8.46394 11.0869 8.42311 11.4052 8.42311V16.4231ZM12.4566 16.2923C15.1644 15.6078 16.3027 13.4286 16.5404 11.7765L8.62201 10.6369C8.6639 10.3459 8.78924 9.89089 9.1498 9.43496C9.54835 8.93097 10.0628 8.6457 10.4962 8.53617L12.4566 16.2923ZM13.768 15.0266L16.3733 14.2172L13.9997 6.57739L11.3944 7.38681L13.768 15.0266ZM16.5658 14.1519C16.6008 14.1391 16.5471 14.1627 16.4152 14.1807C16.2805 14.1992 16.0734 14.2105 15.8111 14.1764C15.5462 14.142 15.2578 14.0653 14.9617 13.9344C14.8156 13.8698 14.6759 13.7955 14.5431 13.7139C14.4764 13.6728 14.4164 13.6329 14.3637 13.5961C14.3378 13.578 14.3177 13.5635 14.314 13.5608C14.3126 13.5598 14.317 13.563 14.3216 13.5663C14.3251 13.5688 14.3401 13.5796 14.3594 13.5932C14.3696 13.6003 14.3862 13.612 14.407 13.6261C14.4257 13.6389 14.4616 13.6631 14.5076 13.6924C14.5286 13.7057 14.5776 13.736 14.6056 13.7529C14.6425 13.7747 14.7319 13.8254 14.7846 13.8539C14.8615 13.8936 15.0644 13.9886 15.1915 14.0412C15.4185 14.1229 16.1502 14.2876 16.6586 14.32V6.32C17.167 6.35243 17.8987 6.51708 18.1258 6.59877C18.2528 6.6514 18.4556 6.74639 18.5325 6.78609C18.6727 6.86043 18.7773 6.92698 18.8095 6.94749C18.8884 6.99786 18.9488 7.04052 18.9571 7.04635C18.9852 7.06606 19.0133 7.0865 19.0007 7.07737C18.9953 7.07349 18.9728 7.05721 18.9437 7.03688C18.8846 6.99561 18.8149 6.94924 18.7353 6.90021C18.5766 6.80262 18.3977 6.70654 18.1979 6.61814C17.7944 6.43969 17.3406 6.30798 16.8429 6.24325C15.8419 6.11305 14.8179 6.27131 13.8072 6.6426L16.5658 14.1519ZM13.7472 13.0629C13.8844 13.2086 14.0327 13.3457 14.1913 13.4727L19.1918 7.22806C19.327 7.33638 19.4533 7.45313 19.5701 7.57712L13.7472 13.0629ZM14.2007 13.4802L14.673 13.8561L19.6548 7.59656L19.1824 7.22061L14.2007 13.4802ZM14.8419 7.46934L9.87432 11.0109L14.5184 17.5249L19.486 13.9833L14.8419 7.46934Z" fill="#74787B" mask="url(#path-3-inside-2_8_615)"/>
</svg>
